HIERARCHY
ROOT Hips
{
	OFFSET 0.0000 0.0000 0.0000
	CHANNELS 6 Xposition Yposition Zposition Zrotation Xrotation Yrotation
	JOINT Ab
	{
		OFFSET -0.0000 8.0846 -0.0000
		CHANNELS 3 Zrotation Xrotation Yrotation
		JOINT Chest
		{
			OFFSET -0.0000 25.0068 -0.0000
			CHANNELS 3 Zrotation Xrotation Yrotation
			JOINT Neck
			{
				OFFSET -0.0000 25.0068 0.0000
				CHANNELS 3 Zrotation Xrotation Yrotation
				JOINT Head
				{
					OFFSET -0.0000 10.7556 0.0000
					CHANNELS 3 Zrotation Xrotation Yrotation
					End Site
					{
						OFFSET -0.0000 16.6222 0.0000
					}
				}
			}
			JOINT LeftCollar
			{
				OFFSET -0.0000 25.0068 0.0000
				CHANNELS 3 Zrotation Xrotation Yrotation
				JOINT LeftShoulder
				{
					OFFSET 19.5556 -0.0000 0.0000
					CHANNELS 3 Zrotation Xrotation Yrotation
					JOINT LeftElbow
					{
						OFFSET 27.1828 0.0000 0.0000
						CHANNELS 3 Zrotation Xrotation Yrotation
						JOINT LeftWrist
						{
							OFFSET 23.3157 0.0000 0.0000
							CHANNELS 3 Zrotation Xrotation Yrotation
							End Site
							{
								OFFSET 0.0000 -14.6667 0.0000
							}
						}
					}
				}
			}
			JOINT RightCollar
			{
				OFFSET -0.0000 25.0068 0.0000
				CHANNELS 3 Zrotation Xrotation Yrotation
				JOINT RightShoulder
				{
					OFFSET -19.5556 0.0000 0.0000
					CHANNELS 3 Zrotation Xrotation Yrotation
					JOINT RightElbow
					{
						OFFSET -27.1828 0.0000 0.0000
						CHANNELS 3 Zrotation Xrotation Yrotation
						JOINT RightWrist
						{
							OFFSET -23.3157 0.0000 0.0000
							CHANNELS 3 Zrotation Xrotation Yrotation
							End Site
							{
								OFFSET -0.0000 -14.6667 0.0000
							}
						}
					}
				}
			}
		}
	}
	JOINT LeftHip
	{
		OFFSET 11.7333 0.0000 0.0000
		CHANNELS 3 Zrotation Xrotation Yrotation
		JOINT LeftKnee
		{
			OFFSET -0.0000 -40.8688 0.0000
			CHANNELS 3 Zrotation Xrotation Yrotation
			JOINT LeftAnkle
			{
				OFFSET -0.0000 -44.4337 0.0000
				CHANNELS 3 Zrotation Xrotation Yrotation
				End Site
				{
					OFFSET -0.0000 -4.8889 16.6222
				}
			}
		}
	}
	JOINT RightHip
	{
		OFFSET -11.7333 0.0000 0.0000
		CHANNELS 3 Zrotation Xrotation Yrotation
		JOINT RightKnee
		{
			OFFSET -0.0000 -40.8688 0.0000
			CHANNELS 3 Zrotation Xrotation Yrotation
			JOINT RightAnkle
			{
				OFFSET -0.0000 -44.4337 0.0000
				CHANNELS 3 Zrotation Xrotation Yrotation
				End Site
				{
					OFFSET -0.0000 -4.8889 16.6222
				}
			}
		}
	}
}
MOTION
Frames: 20
Frame Time: 0.010000
1.5108 88.1703 79.2930 0.6913 359.2270 182.2009 0.9789 3.2822 0.7828 356.7970 7.6044 1.0239 1.9532 338.2327 357.7916 0.5756 4.9361 357.3893 339.7940 358.5618 7.9381 300.5986 6.1562 9.8898 8.2844 357.0739 321.6794 84.8022 357.3490 329.7892 20.9557 358.8374 353.7952 30.3474 45.7474 34.4941 325.7859 347.4776 39.9005 274.5055 348.9063 8.3998 1.3916 351.0016 354.0461 357.2215 17.4251 358.2560 351.8484 349.6643 22.8652 1.1215 350.1424 359.6474 359.0633 27.7949 13.2308 354.8856 339.1200 332.7826 
1.3378 88.1294 78.8344 0.6115 359.4010 182.2395 1.1095 3.1572 0.4428 356.2783 7.9713 0.7080 1.7071 338.1331 357.7994 1.2230 5.1228 357.4242 340.0985 358.5643 7.9771 300.4383 5.6890 9.5371 7.9716 357.2644 321.6768 85.0260 357.4366 329.6728 21.1998 358.8603 354.0806 30.3716 45.6321 34.2853 326.5307 347.7358 40.0920 274.8819 348.7817 9.6008 1.2646 351.3768 354.0287 357.1110 17.6375 358.1621 352.2134 349.3536 22.8804 0.9950 349.8019 359.8748 359.2115 29.2569 12.6443 354.9487 338.6476 332.7444 
1.1645 88.0800 78.3931 0.5642 359.4870 182.2760 0.9701 3.1541 0.3190 356.1629 7.9676 0.5919 1.6354 338.0751 357.8853 1.5289 5.4389 357.5074 340.1686 358.5397 8.1583 300.3552 5.9347 9.1334 7.9088 357.2781 321.9915 85.1499 357.3520 329.7459 21.2697 358.8875 354.2393 30.4764 45.6796 34.0426 327.1061 347.8934 40.2207 275.8848 348.8271 10.7202 1.1575 351.6973 354.1171 357.0576 17.7738 358.1830 352.4096 349.0362 22.5980 0.8922 349.2492 0.1222 359.3231 30.9547 12.2237 355.1783 338.3610 332.7646 
1.0071 87.9998 77.9467 0.4705 359.6015 182.2905 0.5551 3.3668 0.3947 356.2887 7.5584 0.6483 1.8037 338.3326 357.8448 1.4119 5.6284 357.4223 340.0654 358.5740 7.9891 300.4745 6.1140 9.0607 7.8182 357.3237 322.1014 85.1743 357.3707 329.6365 21.3676 358.9057 354.0842 30.8774 45.7839 33.4478 327.8554 348.1668 40.3595 275.6598 348.8126 11.6740 1.0500 352.1421 354.2004 356.9522 17.7579 357.9933 353.1565 349.0953 22.6646 0.7063 348.6650 0.4495 359.6910 32.7517 11.2818 355.1432 338.1739 332.9115 
0.8399 87.9116 77.5098 0.4411 359.7563 182.3578 0.4884 3.4538 0.2528 356.1497 7.5487 0.4929 1.7091 338.3641 357.7547 1.6284 5.8864 357.3402 340.0747 358.6199 7.7500 300.4915 6.6058 8.8144 7.9881 357.2415 322.0316 85.1469 357.4262 330.0116 21.4627 358.8612 353.8859 31.2644 45.6635 33.0188 328.5214 348.3853 40.4671 276.5521 348.6929 12.9223 0.9779 352.6155 354.3002 356.8929 17.7199 357.8356 353.5143 348.8541 22.6454 0.5248 348.0296 0.5906 0.1228 34.6968 9.9544 355.1285 338.0411 333.4906 
0.6402 87.8364 77.0800 0.3672 359.9705 182.4627 0.4656 3.7585 359.9334 355.9525 7.2914 0.2205 1.7193 338.4437 357.8223 1.7574 6.1743 357.4065 340.0418 358.5755 7.9113 300.4933 7.3227 8.4135 8.3115 357.0798 321.9970 85.1041 357.4198 330.5600 21.6728 358.8388 353.9590 32.2775 44.8726 31.8087 329.9764 348.9680 41.2076 276.7337 348.7311 14.6188 0.8017 353.1744 354.2000 356.8626 17.6303 357.7684 353.6364 348.5976 22.6382 0.2227 347.4009 0.4862 0.7236 36.6236 8.3466 354.4834 337.8611 334.1982 
0.4791 87.7822 76.6483 0.4394 0.0791 182.4240 0.4776 3.7338 359.9109 355.8397 7.4298 0.1995 1.8317 338.3674 357.9870 1.7723 6.4087 357.5490 340.0245 358.6130 7.9593 300.5176 7.4649 7.9354 8.2752 357.1333 321.9450 85.2630 357.4952 330.9125 21.7096 358.8349 353.9968 32.6823 44.8660 31.4045 330.7943 349.1633 41.2849 277.2875 348.7035 15.4777 0.8379 353.6911 354.2257 356.7809 17.4392 357.7155 353.8450 348.4034 22.6619 0.1383 346.5961 0.4920 1.1633 38.6960 7.5868 354.6483 337.9101 334.4746 
0.3043 87.7340 76.2227 0.4259 0.1248 182.3758 0.2688 3.8408 0.0529 355.9195 7.2821 0.2849 2.0693 338.3851 357.9945 1.3970 6.6162 357.5117 339.9429 358.6017 7.8363 300.5834 8.0133 7.4566 8.3479 357.1119 321.8985 85.7171 357.2901 331.3627 21.7044 358.7910 353.5780 33.1831 44.9387 30.9793 331.4276 349.3228 41.2991 277.6942 348.5744 16.2258 0.7534 354.1570 354.1635 356.7196 17.1972 358.0523 354.0458 348.3144 22.3758 359.8983 345.7501 0.3632 1.6059 40.6792 6.7586 355.1174 338.7155 335.0580 
0.1339 87.7026 75.7972 0.4471 0.1734 182.3587 0.3229 3.8367 359.8784 355.7977 7.2662 0.1956 1.9621 338.5665 357.9109 1.4724 6.6766 357.4507 339.9026 358.6452 7.4449 300.6142 8.1249 7.1109 8.2979 357.1075 321.9194 86.0406 357.1525 331.6806 21.8112 358.7342 353.2853 33.8098 44.9519 30.2332 332.1325 349.5557 41.4338 277.9330 348.6342 16.8015 0.6800 354.6470 354.2188 356.7575 16.9555 357.7115 354.1768 348.0875 22.7177 359.7083 344.8636 359.9523 1.8565 42.6936 5.9677 357.3999 338.3660 335.4333 
-0.0232 87.6923 75.3716 0.4822 0.2170 182.2948 0.1110 3.9700 0.0038 356.0842 6.9828 0.1365 1.9571 338.8335 358.0185 1.4100 6.7718 357.5779 339.6125 358.6473 7.4106 300.6909 8.7207 6.7004 8.6063 356.9664 321.8319 86.1101 357.4764 332.5011 21.8902 358.7050 353.3002 35.0520 44.0807 28.7091 333.5127 350.1137 42.1563 278.3836 349.0000 17.7730 0.6392 355.1992 354.1198 356.7346 16.5770 357.6693 354.2659 347.9036 22.9127 359.5227 344.0433 359.7077 2.5662 44.2813 3.3517 357.2875 338.0994 335.5277 
-0.1711 87.6944 74.9211 0.5286 0.3548 182.2971 0.0636 4.1213 359.8462 356.1808 6.8305 0.1430 1.8273 338.9363 357.8563 1.1831 7.1486 357.4329 339.4940 358.6954 6.9385 300.6926 9.1887 6.3598 8.8115 356.8996 321.8744 86.6699 357.2060 333.1152 21.8692 358.6512 352.8257 35.6214 44.6319 28.0848 333.8430 350.0661 41.9724 278.5352 349.0424 17.7199 0.6167 355.8990 353.9633 356.7312 16.1053 357.6279 354.4025 347.8486 23.0075 359.3245 343.4288 359.3342 2.9481 45.4959 2.5072 357.1575 338.4265 335.8257 
-0.3053 87.7054 74.4691 0.6364 0.3526 182.1953 0.0696 4.1059 359.8435 356.2741 6.6967 0.0680 1.8966 339.2175 358.0211 1.1168 7.1967 357.6170 339.3952 358.7323 6.8733 300.6442 9.3535 5.8629 8.9557 356.8576 321.7794 87.0028 357.2600 333.5508 21.8228 358.6125 352.7488 36.2753 45.2767 27.2548 334.1488 350.1205 41.8511 278.8212 349.2848 17.9741 0.6943 356.5323 353.8949 356.6827 15.5056 357.6423 354.5213 347.8135 23.1146 359.2486 342.7186 359.1289 3.2329 46.3469 1.7393 354.9174 339.4631 335.8528 
-0.4335 87.7499 74.0142 0.7817 0.3770 182.1261 0.0969 4.1150 359.8049 356.4489 6.6028 0.0097 1.8966 339.4426 358.0696 0.8850 7.3020 357.6721 339.2799 358.7583 6.7394 300.5319 10.3521 5.2545 9.6568 356.5127 321.9829 86.9389 357.0863 334.6259 21.7961 358.5877 352.5845 37.4448 45.1591 25.8711 334.7429 350.3605 42.0659 279.4535 350.0061 18.5749 0.7858 357.2176 353.9937 356.7433 14.8563 357.6374 354.4701 347.8031 23.0493 359.2056 342.1101 358.7852 3.3930 46.7951 1.7863 355.1209 339.0175 335.7771 
-0.5514 87.7761 73.5407 0.9184 0.4085 182.1013 0.1902 4.1454 359.6508 356.5699 6.4764 359.8589 1.7615 339.7169 358.1234 0.8782 7.3903 357.7611 339.2231 358.7916 6.5050 300.4004 10.4397 4.8106 9.7624 356.5306 321.8320 87.3616 357.1113 334.8489 21.7759 358.5621 352.3996 38.3539 45.4575 24.7789 335.1375 350.5129 41.8221 279.8993 350.2135 18.8741 0.8739 357.9189 354.2657 356.8614 14.2612 356.8447 355.2918 347.8184 23.7390 359.1802 341.5972 358.7945 3.6455 46.9041 1.6589 356.2385 339.0346 336.0788 
-0.6682 87.7739 73.1691 0.8946 0.1842 182.1337 0.1042 4.0488 359.5086 356.6386 6.3126 359.6967 2.0805 339.9545 358.3338 0.4586 7.3754 357.9455 339.2909 358.8274 6.3356 300.2431 10.5507 4.2162 9.9020 356.5115 321.6851 87.5672 357.0901 335.0981 21.7883 358.5116 352.1927 39.1384 45.7903 23.9739 335.7849 350.9107 41.1326 279.4857 349.7695 20.0893 0.7635 358.2787 354.1428 356.9465 13.6662 356.5469 355.1295 347.8027 24.0023 358.9834 340.6533 358.5525 3.7682 46.9190 1.6618 355.2825 339.3621 335.6548 
-0.7285 87.8081 72.6753 1.1375 0.3239 182.0587 0.2112 4.2206 359.3816 356.8744 6.1707 359.5592 1.9002 340.0670 358.4403 0.5510 7.6939 358.0857 339.2366 358.7931 6.4739 300.0731 11.7198 3.4581 10.6153 356.1563 321.7872 87.6232 357.0889 336.1097 21.7664 358.4800 352.0437 40.1759 45.7313 22.8231 336.5864 351.3415 40.9225 279.5015 350.0769 20.6478 0.9978 359.2010 354.2417 357.0275 12.7419 357.4539 354.9212 347.9839 23.0570 359.2104 340.2471 358.5782 3.7835 46.3684 1.8481 354.2482 339.8375 335.6293 
-0.7964 87.8182 72.1961 1.3806 0.3763 182.1655 0.3213 4.2765 359.1981 357.1180 6.1181 359.3624 2.0159 340.2611 358.5473 0.3003 7.7995 358.1828 339.2649 358.8361 6.3215 299.9115 12.2765 2.8228 10.9000 356.0876 321.6677 87.8029 357.0831 336.5914 21.7078 358.4394 351.8086 41.2475 45.7654 21.6411 337.2244 351.6616 40.5065 279.6295 349.4657 21.8578 1.1971 359.9439 354.2808 357.1606 12.0005 357.4218 354.9946 348.0859 22.9503 359.3656 339.8228 358.5077 3.8995 45.6447 2.0497 355.8174 339.1088 335.7335 
-0.8439 87.8338 71.8126 1.5312 359.9934 182.1072 0.2320 4.0505 359.0972 357.4300 5.9185 359.2388 2.2300 340.3887 358.7460 0.0709 7.9457 358.3666 339.2662 358.7964 6.4179 299.8027 13.3932 2.0329 11.4885 355.8410 321.7652 87.9882 356.5062 337.3750 21.7203 358.3886 351.5254 41.9379 45.8162 20.7350 337.8264 351.9646 40.1341 280.0406 349.6803 21.6946 1.2952 0.1802 354.4127 357.2760 11.3289 357.4105 354.8978 348.1420 22.8711 359.5170 338.7856 358.6683 3.8567 44.9089 2.0102 355.2834 339.3280 335.6778 
-0.9025 87.8320 71.4095 1.7309 359.7314 182.3328 0.2707 3.9050 358.8100 357.7676 5.8166 358.9346 2.2833 340.4930 358.8295 359.9221 8.0477 358.4493 339.3664 358.8421 6.3016 299.4165 14.5714 1.3102 12.3534 355.4558 321.6191 87.8289 356.7481 338.7653 21.6446 358.3435 351.1897 42.8854 45.6924 19.7221 338.5349 352.3573 39.5277 280.0607 349.6294 22.4880 1.4267 0.4552 354.2754 357.4091 10.7592 357.3542 354.7291 348.1513 22.8043 359.6096 337.9631 358.6302 3.8830 43.9644 1.6846 355.0752 339.4735 335.6540 
-0.9467 87.8191 70.9482 1.9146 359.7294 182.3715 0.2407 3.9421 358.6520 358.1221 5.8518 358.7553 2.5027 340.5127 359.0511 359.7460 8.1566 358.6533 339.4019 358.8261 6.4039 299.3604 15.6985 0.4546 12.9506 355.2423 321.3288 88.0061 356.8105 339.9094 21.5382 358.3153 351.0540 43.8687 45.6163 18.6904 339.0581 352.6363 38.9242 280.6550 349.6753 23.3037 1.5706 1.1220 354.2549 357.5293 10.0843 357.1862 354.2743 348.0804 22.7980 359.7824 337.4317 358.9117 4.0940 42.9035 1.0805 355.7096 339.7088 335.9218 
